<?xml version="1.0" encoding="UTF-8" standalone="no"?>
<!-- Created with Inkscape (http://www.inkscape.org/) -->

<svg
   xmlns:dc="http://purl.org/dc/elements/1.1/"
   xmlns:cc="http://creativecommons.org/ns#"
   xmlns:rdf="http://www.w3.org/1999/02/22-rdf-syntax-ns#"
   xmlns:svg="http://www.w3.org/2000/svg"
   xmlns="http://www.w3.org/2000/svg"
   xmlns:sodipodi="http://sodipodi.sourceforge.net/DTD/sodipodi-0.dtd"
   xmlns:inkscape="http://www.inkscape.org/namespaces/inkscape"
   width="698.5"
   height="775"
   id="svg2"
   version="1.1"
   inkscape:version="0.48.2 r9819"
   sodipodi:docname="logo SESPA.svg">
  <defs
     id="defs4">
    <inkscape:path-effect
       effect="spiro"
       id="path-effect3023"
       is_visible="true" />
  </defs>
  <sodipodi:namedview
     id="base"
     pagecolor="#ffffff"
     bordercolor="#666666"
     borderopacity="1.0"
     inkscape:pageopacity="0.0"
     inkscape:pageshadow="2"
     inkscape:zoom="0.49497475"
     inkscape:cx="359.20898"
     inkscape:cy="547.30541"
     inkscape:document-units="px"
     inkscape:current-layer="layer2"
     showgrid="false"
     fit-margin-top="50"
     fit-margin-left="50"
     fit-margin-bottom="50"
     fit-margin-right="50"
     inkscape:window-width="1600"
     inkscape:window-height="880"
     inkscape:window-x="-8"
     inkscape:window-y="-8"
     inkscape:window-maximized="1"
     showguides="false"
     inkscape:snap-grids="false"
     inkscape:snap-to-guides="false" />
  <metadata
     id="metadata7">
    <rdf:RDF>
      <cc:Work
         rdf:about="">
        <dc:format>image/svg+xml</dc:format>
        <dc:type
           rdf:resource="http://purl.org/dc/dcmitype/StillImage" />
      </cc:Work>
    </rdf:RDF>
  </metadata>
  <g
     inkscape:label="Capa 1"
     inkscape:groupmode="layer"
     id="layer1"
     transform="translate(-14.880748,-45.483916)">
    <path
       style="fill:#204a87"
       d="m 263.10938,763.73499 c -2.98152,-3.20383 -4.72863,-10.78952 -4.72863,-10.78952 l 0,-113.63079 c 0,-84.37947 -0.92672,-114.55749 -3.6,-117.23076 -2.63231,-2.63232 -26.68379,-3.6 -89.47705,-3.6 l -85.877062,0 c 0,0 -8.11311,-1.36939 -10.808484,-4.20615 -2.695374,-2.83675 -3.737406,-11.27724 -3.737406,-11.27724 l 0,-89.69013 0,-89.69011 c 0,0 1.118695,-9.78226 4.27757,-12.86388 3.158875,-3.08161 12.3588,-3.77249 12.3588,-3.77249 l 81.191572,0 81.19156,0 c 0,0 7.5176,1.4031 10.27072,4.37668 2.75312,2.97358 4.20978,12.4579 4.20978,12.4579 l 0,92.2327 c 0,67.73655 0.95613,93.18885 3.6,95.83272 2.65068,2.65068 29.03002,3.6 100.03502,3.6 89.6147,0 96.7862,-0.38802 101.4,-5.48622 4.3896,-4.85046 4.965,-16.002 4.965,-96.23076 l 0,-90.74456 c 0,0 1.43699,-10.09737 4.72859,-13.31492 3.2916,-3.21754 12.80981,-4.22354 12.80981,-4.22354 l 79.9616,0 79.9615,0 c 0,0 8.51484,1.14009 11.79966,4.22354 3.28482,3.08345 5.73884,13.31492 5.73884,13.31492 l 0,87.46154 0,87.46155 c 0,0 -1.57794,9.08721 -4.72869,12.30474 -3.15075,3.21754 -12.80981,5.23371 -12.80981,5.23371 l -83.7658,0 c -77.341,0 -84.1466,0.42078 -88.7308,5.48622 -4.4353,4.90104 -4.9649,17.56551 -4.9649,118.73076 l 0,113.24457 c 0,0 -1.64009,8.58486 -4.72869,11.79967 -3.0886,3.21481 -12.80981,5.73878 -12.80981,5.73878 l -87.4615,0 -87.4616,0 c 0,0 -9.82828,-3.54511 -12.80979,-6.74893 z m 0.50508,-464.49492 c -3.03756,-3.14783 -5.23371,-11.29461 -5.23371,-11.29461 l 0,-87.46154 0,-87.46154 c 0,0 2.58805,-9.21309 5.73878,-12.30476 3.15074,-3.091676 11.79964,-5.233704 11.79964,-5.233704 l 87.4616,0 87.4615,0 c 0,0 8.14674,2.196143 11.29458,5.233704 3.14784,3.03755 6.24392,12.30476 6.24392,12.30476 l 0,87.46154 0,87.46154 c 0,0 -1.00606,9.51824 -4.22361,12.80984 -3.21755,3.2916 -13.31489,4.72862 -13.31489,4.72862 l -87.4615,0 -87.4616,0 c 0,0 -9.26716,-3.09602 -12.30471,-6.24385 z m 139.63381,-36.44211 c 20.9952,-13.94 35.1325,-39.61879 35.1325,-63.81404 0,-24.29052 -14.1286,-49.86826 -35.3174,-63.9368 -15.3235,-10.17424 -18.3916,-11.0632 -38.1826,-11.0632 -19.7911,0 -22.8592,0.88896 -38.1826,11.0632 -21.1888,14.06854 -35.3174,39.64628 -35.3174,63.9368 0,22.05761 14.098,49.52715 31.5979,61.56736 19.1599,13.18233 24.9145,14.96272 45.3471,14.02953 15.4245,-0.70446 21.1433,-2.63396 34.9225,-11.78285 z"
       id="path3016"
       inkscape:connector-curvature="0"
       sodipodi:nodetypes="zcsssczccczccczcsssssczccczccczcsssczccczzccczccczccczccczsssssssss" />
  </g>
  <g
     inkscape:groupmode="layer"
     id="layer2"
     inkscape:label="Guias" />
</svg>
