<?xml version="1.0" encoding="UTF-8" standalone="no"?>
<!-- Created with Inkscape (http://www.inkscape.org/) -->

<svg
   xmlns:dc="http://purl.org/dc/elements/1.1/"
   xmlns:cc="http://creativecommons.org/ns#"
   xmlns:rdf="http://www.w3.org/1999/02/22-rdf-syntax-ns#"
   xmlns:svg="http://www.w3.org/2000/svg"
   xmlns="http://www.w3.org/2000/svg"
   xmlns:sodipodi="http://sodipodi.sourceforge.net/DTD/sodipodi-0.dtd"
   xmlns:inkscape="http://www.inkscape.org/namespaces/inkscape"
   width="24"
   height="24"
   viewBox="0 0 6.3499999 6.3500002"
   version="1.1"
   id="svg4524"
   sodipodi:docname="trebol.svg"
   inkscape:version="0.92.3 (2405546, 2018-03-11)">
  <defs
     id="defs4518" />
  <sodipodi:namedview
     id="base"
     pagecolor="#ffffff"
     bordercolor="#666666"
     borderopacity="1.0"
     inkscape:pageopacity="0.0"
     inkscape:pageshadow="2"
     inkscape:zoom="31.678384"
     inkscape:cx="16.617843"
     inkscape:cy="10.729553"
     inkscape:document-units="mm"
     inkscape:current-layer="layer1"
     showgrid="false"
     units="px"
     inkscape:pagecheckerboard="true"
     inkscape:window-width="1680"
     inkscape:window-height="995"
     inkscape:window-x="0"
     inkscape:window-y="27"
     inkscape:window-maximized="1" />
  <metadata
     id="metadata4521">
    <rdf:RDF>
      <cc:Work
         rdf:about="">
        <dc:format>image/svg+xml</dc:format>
        <dc:type
           rdf:resource="http://purl.org/dc/dcmitype/StillImage" />
        <dc:title></dc:title>
      </cc:Work>
    </rdf:RDF>
  </metadata>
  <g
     inkscape:label="Capa 1"
     inkscape:groupmode="layer"
     id="layer1"
     transform="translate(0,-290.64998)">
    <g
       id="g5109"
       transform="matrix(2,0,0,2,-3.0986568,-294.29379)"
       style="fill:#ffffff;fill-opacity:1">
      <path
         inkscape:connector-curvature="0"
         id="path5077"
         d="m 3.191838,292.79787 c 0.1021133,0.003 0.2023613,0.0103 0.242361,0.0196 0.078486,0.0184 0.176149,0.0524 0.2547646,0.0858 0.039307,0.0167 0.073872,0.0332 0.098703,0.0475 0.012409,0.007 0.022278,0.0142 0.029456,0.0202 0.00717,0.006 0.012409,0.0107 0.012409,0.0181 0,0.002 -2.514e-4,0.002 -5.292e-4,0.003 -2.646e-4,7.9e-4 -0.00106,0.002 -0.00159,0.003 -7.938e-4,0.002 -0.00185,0.004 -0.00362,0.007 -0.00323,0.006 -0.00794,0.0157 -0.013943,0.0269 -0.011986,0.0223 -0.029012,0.053 -0.049609,0.0899 -0.041193,0.0738 -0.09615,0.1713 -0.1519291,0.26872 -0.055777,0.0974 -0.1122706,0.19506 -0.1560618,0.26975 -0.021907,0.0374 -0.040844,0.069 -0.054777,0.092 -0.00696,0.0115 -0.0127,0.0206 -0.017066,0.0274 -0.00437,0.007 -0.00691,0.0109 -0.00931,0.0134 -0.00627,0.007 -0.015108,0.01 -0.026353,0.008 -0.011245,-0.002 -0.025427,-0.007 -0.047543,-0.0171 -0.09843,-0.0436 -0.2201757,-0.0401 -0.3286628,0.01 -0.011007,0.005 -0.021616,0.008 -0.030488,0.01 -0.00445,7.9e-4 -0.0087,7.9e-4 -0.012409,5.3e-4 -0.0037,-5.3e-4 -0.00664,-0.002 -0.00931,-0.005 -0.00185,-0.002 -0.00283,-0.004 -0.00516,-0.007 -0.00238,-0.004 -0.00553,-0.009 -0.00931,-0.015 -0.00757,-0.0124 -0.017674,-0.0298 -0.029975,-0.0506 -0.02458,-0.0418 -0.057338,-0.098 -0.091982,-0.15865 -0.069268,-0.12125 -0.1713097,-0.29884 -0.226859,-0.3948 -0.027816,-0.0481 -0.052951,-0.0927 -0.070281,-0.12609 -0.00868,-0.0167 -0.015108,-0.0307 -0.019632,-0.0408 -0.00238,-0.005 -0.00408,-0.009 -0.00516,-0.0124 -5.292e-4,-0.002 -7.938e-4,-0.003 -0.00106,-0.005 -2.355e-4,-10e-4 -0.00132,-0.002 5.292e-4,-0.005 0.00445,-0.007 0.012965,-0.014 0.024289,-0.0217 0.011351,-0.008 0.025797,-0.0163 0.042892,-0.0248 0.03419,-0.0172 0.078748,-0.0359 0.1271243,-0.0538 0.096753,-0.0358 0.2093145,-0.0681 0.289388,-0.0796 0.045297,-0.007 0.1485159,-0.007 0.2506292,-0.004 z"
         style="fill:#ffffff;fill-opacity:1;stroke-width:0.26458332" />
      <path
         inkscape:connector-curvature="0"
         id="path5075"
         d="m 3.1427446,293.94715 c 0.1010046,6e-5 0.182872,0.0819 0.1829355,0.18294 -6.61e-5,0.101 -0.081931,0.18286 -0.1829355,0.18293 -0.1012058,2.2e-4 -0.1833854,-0.0817 -0.1834515,-0.18293 6.35e-5,-0.10121 0.082243,-0.18316 0.1834515,-0.18294 z"
         style="fill:#ffffff;fill-opacity:1;stroke-width:0.26458332" />
      <path
         inkscape:connector-curvature="0"
         id="path5073"
         d="m 1.7790027,294.13628 h 0.00516 0.473874 0.4733555 0.00466 l 5.292e-4,0.005 0.00775,0.0522 c 0.017145,0.11771 0.093342,0.24287 0.1715663,0.28473 0.00847,0.005 0.016007,0.0105 0.021696,0.0165 0.00569,0.006 0.00982,0.0116 0.00982,0.0186 0,0.003 -5.292e-4,0.005 -0.00159,0.007 -0.00106,0.003 -0.00238,0.006 -0.00413,0.01 -0.00336,0.008 -0.00807,0.0178 -0.013944,0.0295 -0.011748,0.0233 -0.027689,0.0527 -0.045474,0.0837 -0.165944,0.28964 -0.2632577,0.45869 -0.321429,0.55552 -0.029083,0.0484 -0.048223,0.079 -0.061495,0.0977 -0.00664,0.009 -0.01225,0.0152 -0.016536,0.0196 -0.00429,0.004 -0.00751,0.008 -0.01188,0.008 -0.00579,0.001 -0.012012,-8e-4 -0.019632,-0.004 -0.00762,-0.003 -0.016325,-0.007 -0.026352,-0.0129 -0.020082,-0.0114 -0.044588,-0.0281 -0.071829,-0.0486 -0.054486,-0.0409 -0.1193879,-0.0963 -0.1762204,-0.15348 -0.1582923,-0.1592 -0.2691183,-0.34206 -0.3358965,-0.55346 -0.031092,-0.0976 -0.062012,-0.27696 -0.062012,-0.36035 v -0.0496 -0.006 z"
         style="fill:#ffffff;fill-opacity:1;stroke-width:0.26458332" />
      <path
         inkscape:connector-curvature="0"
         id="path3076"
         d="m 4.0284796,294.13628 h 0.4676722 0.00569 v 0.006 0.0744 c -3.43e-5,0.15016 -0.052983,0.36026 -0.1312597,0.52193 -0.1003459,0.20723 -0.2252875,0.35869 -0.4180629,0.50591 -0.033494,0.0256 -0.059021,0.0448 -0.079581,0.0579 -0.020558,0.0131 -0.036311,0.0203 -0.050641,0.0207 -0.01434,2.7e-4 -0.026326,-0.007 -0.037208,-0.0196 -0.010874,-0.0128 -0.021484,-0.0313 -0.035139,-0.0558 -0.052356,-0.0939 -0.153543,-0.27073 -0.2056738,-0.35863 -0.02881,-0.0486 -0.088887,-0.15157 -0.1333236,-0.22945 l -0.080616,-0.14159 -0.00265,-0.004 0.00413,-0.003 0.037724,-0.0289 c 0.094189,-0.072 0.1532546,-0.16711 0.1679469,-0.26872 0.00212,-0.0152 0.00489,-0.0297 0.00722,-0.0413 0.00106,-0.006 0.00212,-0.011 0.0031,-0.015 0.00106,-0.004 0.00159,-0.006 0.0031,-0.009 0.00106,-0.002 0.00238,-0.002 0.0031,-0.003 5.292e-4,-2.6e-4 7.938e-4,-7.9e-4 0.00106,-10e-4 7.938e-4,-2.6e-4 0.00159,8e-5 0.00265,0 0.00212,-2.7e-4 0.00495,-8e-4 0.00826,-0.001 0.00672,-5.3e-4 0.016245,-10e-4 0.028424,-0.002 0.024395,-10e-4 0.058941,-0.002 0.1018011,-0.003 0.085714,-0.002 0.2035836,-0.003 0.3322796,-0.003 z"
         style="fill:#ffffff;fill-opacity:1;stroke-width:0.26458332" />
    </g>
  </g>
</svg>
